#!OML:ASF H:\Male1\Project 1\Capture day 1\Session 1\Male1.ASF
:FULLY-SPECIFIED
:DEGREES
484
root 22.2482 15.2707 0.725627 162.474 -80.6456 -163.229
lowerback 12.0106 -0.0975018 -0.827942
upperback 10.5523 -0.897587 0.0267283
thorax 4.37508 -0.797305 0.540092
lowerneck -6.77854 6.62412 13.2977
upperneck -0.911177 8.12095 -16.1001
head 2.10967 3.73696 -6.72239
rclavicle -3.75703e-014 3.06128e-014
rhumerus -4.93005 41.4973 -93.4772
rradius 131.044
rwrist 0.101605
rhand -12.0447 23.9181
rfingers 7.12502
rthumb 14.0139 -5.58949
lclavicle -3.75703e-014 3.06128e-014
lhumerus 0.458131 -25.3446 84.0111
lradius 140.861
lwrist 2.09611
lhand 0.49356 -17.3537
lfingers 7.12502
lthumb 26.063 10.8782
rfemur -11.8079 5.50256 20.5067
rtibia 29.6984
rfoot -20.0862 -24.0599
rtoes -30.6497
lfemur -11.0676 -4.87573 -13.1245
ltibia 34.2908
lfoot -21.5152 20.9484
ltoes -17.1001
485
root 22.2409 15.2546 0.726132 160.837 -80.767 -161.496
lowerback 12.0937 -0.32511 -0.644733
upperback 10.6006 -1.19718 0.251726
thorax 4.39004 -0.948479 0.696738
lowerneck -6.41992 6.6599 13.3024
upperneck -1.11881 8.19934 -16.7428
head 2.03822 3.77907 -6.9347
rclavicle -2.24627e-014 1.78906e-014
rhumerus -4.96254 40.652 -93.1859
rradius 131.371
rwrist 0.357434
rhand -11.2046 23.2511
rfingers 7.12502
rthumb 14.8234 -6.19871
lclavicle -2.24627e-014 1.78906e-014
lhumerus -0.470927 -24.7966 84.0355
lradius 140.548
lwrist 1.72195
lhand 0.283092 -16.9821
lfingers 7.12502
lthumb 25.8615 11.2794
rfemur -12.0376 4.80893 20.7131
rtibia 30.0144
rfoot -20.0351 -23.8337
rtoes -31.3866
lfemur -11.5287 -4.76057 -12.8581
ltibia 34.9637
lfoot -21.6134 20.7268
ltoes -17.7292
486
root 22.2337 15.2401 0.727084 158.942 -80.9997 -159.51
lowerback 12.1998 -0.526849 -0.421777
upperback 10.5878 -1.45086 0.431778
thorax 4.32411 -1.06916 0.782846
lowerneck -6.06425 6.8128 13.6265
upperneck -1.21151 8.43396 -17.6152
head 2.05225 3.89523 -7.26251
rclavicle -2.32578e-014 1.66979e-014
rhumerus -4.85077 39.6193 -92.7628
rradius 131.864
rwrist 0.153559
rhand -10.5364 22.985
rfingers 7.12502
rthumb 15.467 -6.41621
lclavicle -2.32578e-014 1.66979e-014
lhumerus -1.67721 -24.4636 84.1147
lradius 140.214
lwrist 1.44216
lhand 0.434827 -17.909
lfingers 7.12502
lthumb 26.0068 10.3312
rfemur -12.1834 4.07499 20.9081
rtibia 30.2376
rfoot -20.0431 -23.6449
rtoes -32.0436
lfemur -12.0282 -4.7632 -12.586
ltibia 35.5758
lfoot -21.6194 20.3904
ltoes -17.8462
487
root 22.2218 15.2296 0.725808 157.218 -81.1454 -157.799
lowerback 12.3544 -0.613241 -0.346104
upperback 10.5995 -1.56829 0.632839
thorax 4.26063 -1.13335 0.963604
lowerneck -5.97745 6.9234 13.884
upperneck -0.976071 8.62271 -18.3473
head 2.19012 3.97461 -7.52818
rclavicle 1.21259e-014 1.11319e-014
rhumerus -4.47493 38.3221 -92.0972
rradius 132.408
rwrist -0.393746
rhand -9.44232 23.3672
rfingers 7.12502
rthumb 16.5206 -5.94953
lclavicle 1.21259e-014 1.11319e-014
lhumerus -3.03696 -24.3046 84.3126
lradius 139.875
lwrist 1.18877
lhand 0.31518 -17.8994
lfingers 7.12502
lthumb 25.8922 10.3576
rfemur -12.153 3.51517 21.1023
rtibia 30.3721
rfoot -20.2186 -23.4246
rtoes -32.2432
lfemur -12.3105 -4.73041 -12.3545
ltibia 36.0636
lfoot -21.4295 20.1713
ltoes -18.5712
488
root 22.2062 15.2221 0.724515 155.214 -81.1846 -155.863
lowerback 12.5872 -0.629541 -0.144667
upperback 10.5867 -1.57891 0.762804
thorax 4.12119 -1.13312 0.993612
lowerneck -6.095 7.00025 14.0254
upperneck -0.486809 8.77871 -18.8142
head 2.41052 4.02812 -7.68369
rclavicle 2.70347e-014 1.19271e-015
rhumerus -3.15075 37.0041 -90.7321
rradius 132.822
rwrist -0.757969
rhand -8.49742 23.3381
rfingers 7.12502
rthumb 17.4302 -5.90038
lclavicle 2.70347e-014 1.19271e-015
lhumerus -4.44335 -24.2902 84.4056
lradius 139.438
lwrist 1.00988
lhand -0.218368 -17.8783
lfingers 7.12502
lthumb 25.3812 10.4523
rfemur -11.9867 3.16003 21.3746
rtibia 30.38
rfoot -20.4459 -23.2575
rtoes -31.8658
lfemur -12.3812 -4.67082 -12.0508
ltibia 36.3801
lfoot -21.3003 19.8447
ltoes -18.8662
489
root 22.1876 15.2188 0.725841 153.432 -81.3274 -154.094
lowerback 12.5778 -0.586656 0.0079198
upperback 10.6272 -1.51457 0.861492
thorax 4.16862 -1.09697 1.00476
lowerneck -6.27467 6.99485 14.0731
upperneck 0.0418114 8.82544 -19.1763
head 2.62467 4.02365 -7.79759
rclavicle -2.38542e-015 1.19271e-014
rhumerus -1.54923 35.5026 -89.0664
rradius 133.185
rwrist -0.55193
rhand -8.00525 22.7149
rfingers 7.12502
rthumb 17.9038 -6.48104
lclavicle -2.38542e-015 1.19271e-014
lhumerus -5.61758 -24.4687 84.3852
lradius 138.896
lwrist 0.788576
lhand -0.459393 -18.2837
lfingers 7.12502
lthumb 25.1503 10.0796
rfemur -11.774 2.8797 21.5477
rtibia 30.2321
rfoot -20.633 -23.2163
rtoes -31.2015
lfemur -12.4104 -4.67552 -11.834
ltibia 36.5171
lfoot -21.3864 19.3883
ltoes -18.3085
490
root 22.1652 15.2229 0.729198 152.093 -81.6107 -152.736
lowerback 12.0836 -0.481577 -0.0425039
upperback 10.8562 -1.39903 0.972829
thorax 4.68614 -1.05262 1.1243
lowerneck -6.4926 6.95429 14.0197
upperneck 0.508782 8.81792 -19.4376
head 2.808 3.99178 -7.86653
rclavicle 3.24019e-014 -3.22031e-014
rhumerus 1.07441 33.8284 -86.6245
rradius 133.315
rwrist -0.517764
rhand -7.26795 21.5298
rfingers 7.12502
rthumb 18.6131 -7.59969
lclavicle 3.24019e-014 -3.22031e-014
lhumerus -6.35181 -24.5951 84.2679
lradius 138.3
lwrist 0.54925
lhand -0.590884 -18.6205
lfingers 7.12502
lthumb 25.0243 9.76034
rfemur -11.49 2.66298 21.5707
rtibia 29.941
rfoot -20.7308 -23.317
rtoes -30.9193
lfemur -12.386 -4.84411 -11.8013
ltibia 36.4816
lfoot -21.4762 19.1278
ltoes -17.9725
491
root 22.1417 15.2345 0.732655 150.382 -81.917 -151.013
lowerback 12.1886 -0.408355 0.0245836
upperback 10.6515 -1.26955 0.965068
thorax 4.4021 -0.9719 1.07449
lowerneck -6.70948 6.89357 14.0166
upperneck 1.57422 8.85109 -19.404
head 3.15491 3.97678 -7.84228
rclavicle -2.04748e-014 7.15625e-015
rhumerus 3.6402 31.9838 -84.2298
rradius 133.364
rwrist -0.7273
rhand -6.10696 20.0813
rfingers 7.12502
rthumb 19.7295 -8.93748
lclavicle -2.04748e-014 7.15625e-015
lhumerus -7.81482 -24.6895 84.2725
lradius 137.766
lwrist 0.362674
lhand -0.389709 -18.8936
lfingers 7.12502
lthumb 25.217 9.46026
rfemur -11.104 2.56775 21.6378
rtibia 29.508
rfoot -20.6791 -23.6522
rtoes -31.243
lfemur -12.2722 -5.15349 -11.7669
ltibia 36.2795
lfoot -21.469 19.0864
ltoes -17.9567
492
root 22.1181 15.25 0.734933 148.075 -82.2744 -148.646
lowerback 12.1236 -0.307083 0.0937635
upperback 10.5114 -1.10615 0.921887
thorax 4.27918 -0.874265 0.978652
lowerneck -6.90169 6.84275 14.1153
upperneck 2.43755 8.86693 -19.4131
head 3.44475 3.95801 -7.85503
rclavicle -3.37934e-015 -3.57812e-015
rhumerus 6.71617 29.89 -81.4882
rradius 133.265
rwrist -0.776806
rhand -5.15348 18.4283
rfingers 7.12502
rthumb 20.6459 -10.4937
lclavicle -3.37934e-015 -3.57812e-015
lhumerus -9.18283 -24.947 84.2051
lradius 137.265
lwrist 0.319946
lhand 0.733721 -18.7971
lfingers 7.12502
lthumb 26.293 9.40074
rfemur -10.6718 2.61248 21.7621
rtibia 28.9171
rfoot -20.5687 -24.2343
rtoes -31.4848
lfemur -12.1497 -5.58069 -11.6978
ltibia 35.9154
lfoot -21.3529 19.1586
ltoes -18.0434
493
root 22.0951 15.2705 0.735872 144.935 -82.7854 -145.372
lowerback 11.9734 -0.215377 0.133829
upperback 10.3327 -0.950119 0.84389
thorax 4.16136 -0.777796 0.862457
lowerneck -7.01048 6.80713 14.4839
upperneck 3.22163 8.89249 -19.6623
head 3.72641 3.94551 -7.99872
rclavicle -1.35174e-014 -2.38542e-015
rhumerus 9.96628 27.5722 -78.6517
rradius 132.843
rwrist -0.709358
rhand -4.0314 16.9912
rfingers 7.12502
rthumb 21.7238 -11.8098
lclavicle -1.35174e-014 -2.38542e-015
lhumerus -10.6101 -25.4346 84.2091
lradius 136.772
lwrist 0.526336
lhand 1.28242 -18.1839
lfingers 7.12502
lthumb 26.8181 9.93457
rfemur -10.2019 2.7985 21.8687
rtibia 28.1781
rfoot -20.5692 -24.9911
rtoes -31.2051
lfemur -12.0888 -6.17648 -11.655
ltibia 35.4292
lfoot -21.1128 19.2344
ltoes -18.2171
494
root 22.0701 15.2976 0.734986 141.056 -83.4164 -141.347
lowerback 11.5773 -0.122433 -0.0650937
upperback 10.3092 -0.825829 0.830273
thorax 4.3499 -0.719081 0.944748
lowerneck -7.28714 6.76891 14.2055
upperneck 3.8612 8.89442 -19.2878
head 3.92567 3.92831 -7.81918
rclavicle -9.54166e-015 -2.38542e-015
rhumerus 13.9045 25.1179 -75.3737
rradius 131.933
rwrist -0.908144
rhand -2.85655 16.2231
rfingers 7.12502
rthumb 22.8516 -12.4431
lclavicle -9.54166e-015 -2.38542e-015
lhumerus -11.7436 -25.8378 84.2704
lradius 136.226
lwrist 1.16664
lhand 1.38021 -17.3461
lfingers 7.12502
lthumb 26.9117 10.758
rfemur -9.62404 3.10688 21.9153
rtibia 27.318
rfoot -20.8818 -25.8167
rtoes -30.2527
lfemur -12.0036 -6.81128 -11.6695
ltibia 34.8425
lfoot -20.9058 19.1239
ltoes -18.034
495
root 22.0425 15.3243 0.732689 135.926 -84.0234 -136.104
lowerback 11.6709 0.00393122 -0.0968176
upperback 10.0059 -0.617789 0.659274
thorax 3.96517 -0.593258 0.773077
lowerneck -8.01401 6.70471 13.8731
upperneck 5.27383 8.87598 -18.4107
head 4.39629 3.88443 -7.45792
rclavicle -1.11319e-014 1.23246e-014
rhumerus 17.3629 22.4941 -72.4045
rradius 130.737
rwrist -1.24579
rhand -2.0642 15.6539
rfingers 7.12502
rthumb 23.6118 -12.9164
lclavicle -1.11319e-014 1.23246e-014
lhumerus -13.4334 -26.4683 84.3447
lradius 135.911
lwrist 2.07884
lhand 1.06389 -17.889
lfingers 7.12502
lthumb 26.609 10.2613
rfemur -8.92348 3.54168 22.0101
rtibia 26.3547
rfoot -21.4039 -26.7084
rtoes -28.87
lfemur -11.8031 -7.40359 -11.6374
ltibia 34.1276
lfoot -20.6901 18.8915
ltoes -17.3889
